<svg t="1596081296257" class="icon" viewBox="0 0 1024 1024" version="1.1" xmlns="http://www.w3.org/2000/svg" p-id="38296"><path d="M937.6 915.2H86.4c-12.3 0-22.4 10.1-22.4 22.4 0 12.3 10.1 22.4 22.4 22.4h851.2c12.3 0 22.4-10.1 22.4-22.4 0-12.3-10.1-22.4-22.4-22.4zM220.8 198.4c-12.3 0-22.4 10.1-22.4 22.4V624c0 12.3 10.1 22.4 22.4 22.4h134.4c12.3 0 22.4-10.1 22.4-22.4V220.8c0-12.3-10.1-22.4-22.4-22.4H220.8z m112 403.2h-89.6V243.2h89.6v358.4zM825.6 220.8c0-12.3-9.5-22.4-21.2-22.4H466c-11.6 0-21.2 10.1-21.2 22.4v134.4c0 12.3 9.5 22.4 21.2 22.4h338.5c11.6 0 21.2-10.1 21.2-22.4V220.8z m-44.8 112H489.6v-89.6h291.2v89.6zM467.2 444.8c-12.3 0-22.4 11.3-22.4 25.2v151.2c0 13.9 10.1 25.2 22.4 25.2h112c12.3 0 22.4-11.3 22.4-25.2V470c0-13.9-10.1-25.2-22.4-25.2h-112z m89.6 156.8h-67.2v-112h67.2v112zM803.2 444.8h-112c-12.3 0-22.4 11.3-22.4 25.2v151.2c0 13.9 10.1 25.2 22.4 25.2h112c12.3 0 22.4-11.3 22.4-25.2V470c0-13.9-10.1-25.2-22.4-25.2z m-22.4 156.8h-67.2v-112h67.2v112z" p-id="38297"></path><path d="M937.6 243.2c12.4 0 22.4-10 22.4-22.4v-112c0-24.6-20.2-44.8-44.8-44.8H108.8C84.2 64 64 84.2 64 108.8V736c0 24.6 20.2 44.8 44.8 44.8h806.4c24.6 0 44.8-20.2 44.8-44.8V400c0-12.4-10-22.4-22.4-22.4-12.4 0-22.4 10-22.4 22.4v313.6c0 12.3-10.1 22.4-22.4 22.4H131.2c-12.3 0-22.4-10.1-22.4-22.4V131.2c0-12.3 10.1-22.4 22.4-22.4h761.6c12.3 0 22.4 10.1 22.4 22.4v89.6c0 12.4 10 22.4 22.4 22.4z" p-id="38298"></path></svg>