<?xml version="1.0" standalone="no"?><!DOCTYPE svg PUBLIC "-//W3C//DTD SVG 1.1//EN" "http://www.w3.org/Graphics/SVG/1.1/DTD/svg11.dtd"><svg t="1596093516358" class="icon" viewBox="0 0 1024 1024" version="1.1" xmlns="http://www.w3.org/2000/svg" p-id="31355" width="24" height="24" xmlns:xlink="http://www.w3.org/1999/xlink"><defs><style type="text/css"></style></defs><path d="M972.8 0a51.2 51.2 0 0 1 51.2 51.2v921.6a51.2 51.2 0 0 1-51.2 51.2H51.2a51.2 51.2 0 0 1-51.2-51.2V51.2a51.2 51.2 0 0 1 51.2-51.2h921.6z m-30.72 81.92H81.92v860.16h860.16V81.92z" p-id="31356"></path><path d="M716.8 215.04a40.96 40.96 0 0 1 5.12 81.6128L716.8 296.96h-165.12a40.7552 40.7552 0 0 1 0.9728 5.12l0.3072 5.12v460.8a40.96 40.96 0 0 1-81.6128 5.12L471.04 768V307.2c0-3.584 0.4608-6.9632 1.28-10.24H307.2a40.96 40.96 0 0 1-5.12-81.6128L307.2 215.04h409.6z" p-id="31357"></path></svg>