<svg t="1596093876148" class="icon" viewBox="0 0 1024 1024" version="1.1" xmlns="http://www.w3.org/2000/svg" p-id="34403" xmlns:xlink="http://www.w3.org/1999/xlink" width="24" height="24"><defs><style type="text/css"></style></defs><path d="M649.318365 519.451143c42.577963-23.417879 72.382536-70.253638 72.382536-123.476091 0-76.640333-63.866944-140.507277-140.507277-140.507277-76.640333 0-140.507277 63.866944-140.507276 140.507277 0 53.222453 29.804574 97.929314 72.382536 123.476091-106.444906 29.804574-183.085239 127.733888-183.085239 242.694387 0 12.773389 10.644491 23.417879 23.41788 23.41788 12.773389 0 23.417879-10.644491 23.417879-23.41788 0-112.831601 91.54262-204.37422 204.37422-204.37422s204.37422 91.54262 204.374221 204.37422c0 12.773389 10.644491 23.417879 23.417879 23.41788 12.773389 0 23.417879-10.644491 23.41788-23.41788 0-114.960499-76.640333-212.889813-183.085239-242.694387z m-161.796258-123.476091c0-51.093555 40.449064-91.54262 91.542619-91.54262s91.54262 40.449064 91.54262 91.54262-40.449064 91.54262-91.54262 91.54262c-48.964657 2.128898-91.54262-40.449064-91.542619-91.54262z" p-id="34404"></path><path d="M157.542897 2.128898c-46.835759 0-85.155925 38.320166-85.155925 85.155925v76.640333c0 19.160083 14.902287 34.06237 36.191268 34.06237 19.160083 0 36.191268-14.902287 36.191268-34.06237V70.253638h796.2079v885.621622H144.769508v-91.54262C144.769508 845.172557 129.867221 830.27027 108.57824 830.27027c-19.160083 0-36.191268 14.902287-36.191268 34.06237v74.511435c0 46.835759 38.320166 85.155925 85.155925 85.155925h768.532224c46.835759 0 85.155925-38.320166 85.155925-85.155925v-851.559252c0-46.835759-38.320166-85.155925-85.155925-85.155925H157.542897z" p-id="34405"></path><path d="M180.960776 342.752599h-149.022869c-17.031185 0-31.933472-14.902287-31.933472-31.933472s14.902287-31.933472 31.933472-31.933472h149.022869c17.031185 0 31.933472 14.902287 31.933472 31.933472s-14.902287 31.933472-31.933472 31.933472zM180.960776 547.126819h-149.022869c-17.031185 0-31.933472-14.902287-31.933472-31.933472s14.902287-31.933472 31.933472-31.933472h149.022869c17.031185 0 31.933472 14.902287 31.933472 31.933472s-14.902287 31.933472-31.933472 31.933472zM180.960776 749.372141h-149.022869c-17.031185 0-31.933472-14.902287-31.933472-31.933472s14.902287-31.933472 31.933472-31.933471h149.022869c17.031185 0 31.933472 14.902287 31.933472 31.933471s-14.902287 31.933472-31.933472 31.933472z" p-id="34406"></path></svg>