<svg t="1596607938126" class="icon" viewBox="0 0 1024 1024" version="1.1" xmlns="http://www.w3.org/2000/svg" p-id="3064" width="22" height="22"><path d="M516.5056 352.4608h-245.76c-11.264 0-20.48-9.216-20.48-20.48s9.216-20.48 20.48-20.48h245.76c11.264 0 20.48 9.216 20.48 20.48s-9.216 20.48-20.48 20.48zM516.5056 598.2208h-245.76c-11.264 0-20.48-9.216-20.48-20.48s9.216-20.48 20.48-20.48h245.76c11.264 0 20.48 9.216 20.48 20.48s-9.216 20.48-20.48 20.48zM741.7856 475.3408h-471.04c-11.264 0-20.48-9.216-20.48-20.48s9.216-20.48 20.48-20.48h471.04c11.264 0 20.48 9.216 20.48 20.48s-9.216 20.48-20.48 20.48z" p-id="3065"></path><path d="M506.2656 901.12h-245.76c-56.5248 0-102.4-45.8752-102.4-102.4V225.28c0-56.5248 45.8752-102.4 102.4-102.4h491.52c56.5248 0 102.4 45.8752 102.4 102.4v286.72c0 11.264-9.216 20.48-20.48 20.48s-20.48-9.216-20.48-20.48V225.28c0-33.792-27.648-61.44-61.44-61.44h-491.52c-33.792 0-61.44 27.648-61.44 61.44v573.44c0 33.792 27.648 61.44 61.44 61.44h245.76c11.264 0 20.48 9.216 20.48 20.48s-9.216 20.48-20.48 20.48z" p-id="3066"></path><path d="M799.9488 775.7824h-190.0544l43.2128-74.5472c-22.1184-17.6128-35.6352-45.8752-35.6352-75.9808 0-52.0192 39.3216-94.6176 87.4496-94.6176s87.4496 42.3936 87.4496 94.6176c0 30.1056-13.5168 58.368-35.6352 75.9808l43.2128 74.5472z m-154.624-20.48h118.9888l-35.0208-60.6208 8.3968-5.3248c21.0944-13.1072 34.2016-37.888 34.2016-64.512 0-40.7552-30.1056-74.1376-66.9696-74.1376s-66.9696 33.1776-66.9696 74.1376c0 26.624 13.1072 51.2 34.2016 64.512l8.3968 5.3248-35.2256 60.6208z" p-id="3067"></path><path d="M821.4528 860.16H588.3904c-18.8416 0-34.2016-15.36-34.2016-34.2016v-36.4544c0-18.8416 15.36-34.2016 34.2016-34.2016h233.0624c18.8416 0 34.2016 15.36 34.2016 34.2016v36.4544c0 18.8416-15.36 34.2016-34.2016 34.2016z m-233.0624-84.3776c-7.5776 0-13.7216 6.144-13.7216 13.7216v36.4544c0 7.5776 6.144 13.7216 13.7216 13.7216h233.0624c7.5776 0 13.7216-6.144 13.7216-13.7216v-36.4544c0-7.5776-6.144-13.7216-13.7216-13.7216H588.3904zM817.5616 890.88h-225.28c-5.7344 0-10.24-4.5056-10.24-10.24s4.5056-10.24 10.24-10.24h225.28c5.7344 0 10.24 4.5056 10.24 10.24s-4.5056 10.24-10.24 10.24z" p-id="3068"></path></svg>