<?xml version="1.0" standalone="no"?><!DOCTYPE svg PUBLIC "-//W3C//DTD SVG 1.1//EN" "http://www.w3.org/Graphics/SVG/1.1/DTD/svg11.dtd"><svg t="1596094021899" class="icon" viewBox="0 0 1024 1024" version="1.1" xmlns="http://www.w3.org/2000/svg" p-id="39278" xmlns:xlink="http://www.w3.org/1999/xlink" width="24" height="24"><defs><style type="text/css"></style></defs><path d="M443.211294 507.241412H178.898824a50.838588 50.838588 0 0 1-50.838589-53.308236V189.138824a50.838588 50.838588 0 0 1 50.838589-50.838589h264.252235a50.838588 50.838588 0 0 1 53.36847 50.838589v264.794352a50.838588 50.838588 0 0 1-53.36847 53.308236z m0-318.042353H181.488941l3.011765 262.144h258.710588V189.138824z m287.141647 331.294117a50.838588 50.838588 0 0 1-37.104941-15.239529L546.334118 358.4a50.778353 50.778353 0 0 1 0-73.728l146.371764-146.853647a50.778353 50.778353 0 0 1 73.728 0l146.371765 146.853647a50.718118 50.718118 0 0 1 0 73.728l-146.371765 146.853647a50.898824 50.898824 0 0 1-36.141176 15.239529zM588.498824 323.824941l141.793882 139.203765 140.709647-139.203765-140.709647-143.841882L588.498824 323.824941zM443.211294 933.647059H178.898824a50.898824 50.898824 0 0 1-50.838589-53.368471v-266.842353a50.838588 50.838588 0 0 1 50.838589-50.778353h264.252235a50.838588 50.838588 0 0 1 53.36847 50.838589v264.734117a50.838588 50.838588 0 0 1-53.36847 55.416471z m0-318.102588l-261.722353 2.529882 3.011765 262.204235 258.710588-2.529882v-262.204235z m418.755765 318.042353H597.172706a50.898824 50.898824 0 0 1-50.838588-53.308236v-266.842353a50.838588 50.838588 0 0 1 50.838588-50.778353h264.794353a50.838588 50.838588 0 0 1 50.778353 50.838589v264.734117a50.838588 50.838588 0 0 1-50.778353 55.416471z m-3.072-320.090353l-261.722353 2.529882 3.011765 262.204235 258.710588-2.529882v-262.204235z" p-id="39279"></path></svg>