<svg t="1596081240873" class="icon" viewBox="0 0 1024 1024" version="1.1" xmlns="http://www.w3.org/2000/svg" p-id="38148"><path d="M917.3 106.7H106.7c-23.6 0-42.7 19.1-42.7 42.7V704c0 23.6 19.1 42.7 42.7 42.7h298.7v128H128c-11.8 0-21.3 9.6-21.3 21.3 0 11.8 9.6 21.3 21.3 21.3h768c11.8 0 21.3-9.6 21.3-21.3 0-11.8-9.6-21.3-21.3-21.3H618.7v-128h298.7c23.6 0 42.7-19.1 42.7-42.7V149.3c-0.1-23.5-19.2-42.6-42.8-42.6zM576 874.7H448v-128h128v128z m341.3-192c0 11.8-9.6 21.3-21.3 21.3H128c-11.8 0-21.3-9.6-21.3-21.3v-512c0-11.8 9.6-21.3 21.3-21.3h768c11.8 0 21.3 9.6 21.3 21.3v512z" p-id="38149"></path><path d="M751.7 230.6c-4.2-4.2-9.6-6.3-15.1-6.2-5.5 0-10.9 2.1-15.1 6.2L552.1 400l-133.5-77.1c-0.3-0.2-0.7-0.2-1.1-0.4-1.5-0.8-3-1.2-4.7-1.6-1.2-0.3-2.3-0.6-3.5-0.7-1.3-0.1-2.6 0.1-4 0.3-1.5 0.2-2.9 0.4-4.2 0.8-1 0.4-1.9 0.9-2.9 1.4-1.6 0.8-3 1.7-4.3 2.9-0.3 0.2-0.6 0.3-0.9 0.6l-181 181c-8.3 8.3-8.3 21.8 0 30.2 8.3 8.3 21.8 8.3 30.2 0L411.5 368 545 445.1c0.3 0.2 0.7 0.2 1.1 0.4 1.5 0.8 3 1.2 4.7 1.6 1.2 0.3 2.3 0.6 3.5 0.7 1.3 0.1 2.6-0.1 4-0.3 1.5-0.2 2.9-0.4 4.2-0.8 1-0.4 1.9-0.9 2.9-1.4 1.6-0.8 3-1.7 4.3-2.9 0.3-0.2 0.6-0.3 0.9-0.6l166-166 45.3 45.3c8.3 8.3 21.8 8.3 30.2 0 8.3-8.3 8.3-21.8 0-30.2l-60.4-60.3zM362.7 512c-11.8 0-21.3 9.6-21.3 21.3v85.3c0 11.8 9.6 21.3 21.3 21.3 11.8 0 21.3-9.6 21.3-21.3v-85.3c0-11.7-9.6-21.3-21.3-21.3zM483.6 512c-11.8 0-21.3 9.6-21.3 21.3v85.3c0 11.8 9.6 21.3 21.3 21.3 11.8 0 21.3-9.6 21.3-21.3v-85.3c0-11.7-9.6-21.3-21.3-21.3zM625.8 469.3c-11.8 0-21.3 7.6-21.3 17.1v136.5c0 9.4 9.6 17.1 21.3 17.1 11.8 0 21.3-7.6 21.3-17.1V486.4c0-9.4-9.5-17.1-21.3-17.1zM746.7 384c-11.8 0-21.3 9.6-21.3 21.3v213.3c0 11.8 9.6 21.3 21.3 21.3 11.8 0 21.3-9.6 21.3-21.3V405.3c0-11.7-9.6-21.3-21.3-21.3z" p-id="38150"></path></svg>