<svg t="1596080938584" class="icon" viewBox="0 0 1024 1024" version="1.1" xmlns="http://www.w3.org/2000/svg" p-id="32179"><path d="M498.526316 633.263158c110.484211 0 199.410526-88.926316 199.410526-199.410526 0-10.778947-8.084211-18.863158-18.863158-18.863158h-161.68421v-161.684211c0-10.778947-8.084211-18.863158-18.863158-18.863158-110.484211 0-199.410526 88.926316-199.410527 199.410527 0 107.789474 88.926316 199.410526 199.410527 199.410526z m-18.863158-361.094737v161.684211c0 10.778947 8.084211 18.863158 18.863158 18.863157h161.68421c-8.084211 80.842105-78.147368 142.821053-161.68421 142.821053-88.926316 0-161.684211-72.757895-161.684211-161.68421 0-83.536842 61.978947-153.6 142.821053-161.684211z" p-id="32180"></path><path d="M568.589474 382.652632h164.378947c10.778947 0 18.863158-8.084211 18.863158-18.863158 0-105.094737-80.842105-185.936842-183.242105-185.936842-10.778947 0-18.863158 8.084211-18.863158 18.863157v167.073685c0 10.778947 8.084211 18.863158 18.863158 18.863158z m142.821052-37.726316h-123.957894V218.273684c64.673684 8.084211 115.873684 59.284211 123.957894 126.652632z" p-id="32181"></path><path d="M827.284211 35.031579H323.368421 315.284211c-2.694737 0-2.694737 2.694737-2.694737 2.694737s-2.694737 0-2.694737 2.694737L142.821053 199.410526s-2.694737 2.694737-2.694737 5.389474v727.578947c0 32.336842 26.947368 59.284211 59.28421 59.284211h633.263158c32.336842 0 59.284211-26.947368 59.284211-59.284211V94.315789c-5.389474-32.336842-32.336842-59.284211-64.673684-59.28421zM266.778947 194.021053H202.105263l102.4-97.010527v59.284211c0 21.557895-16.168421 37.726316-37.726316 37.726316z m582.063158 735.663158c0 10.778947-10.778947 21.557895-21.557894 21.557894H196.715789c-10.778947 0-21.557895-10.778947-21.557894-21.557894V231.747368h91.621052c40.421053 0 72.757895-32.336842 72.757895-72.757894V72.757895h485.052632c10.778947 0 21.557895 10.778947 21.557894 21.557894v835.368422z" p-id="32182"></path><path d="M768 714.105263H253.305263c-10.778947 0-18.863158 8.084211-18.863158 18.863158s8.084211 18.863158 18.863158 18.863158h517.389474c10.778947 0 18.863158-8.084211 18.863158-18.863158s-10.778947-18.863158-21.557895-18.863158zM563.2 821.894737H253.305263c-10.778947 0-18.863158 8.084211-18.863158 18.863158s8.084211 18.863158 18.863158 18.863158H565.894737c10.778947 0 18.863158-8.084211 18.863158-18.863158s-10.778947-18.863158-21.557895-18.863158z" p-id="32183"></path></svg>