<svg t="1596080534218" class="icon" viewBox="0 0 1024 1024" version="1.1" xmlns="http://www.w3.org/2000/svg" p-id="20726"><path d="M647.314286 356.571429h-392c-12.571429 0-22.857143-10.285714-22.857143-22.857143s10.285714-22.857143 22.857143-22.857143h392c12.571429 0 22.857143 10.285714 22.857143 22.857143s-10.171429 22.857143-22.857143 22.857143zM647.314286 494.285714h-392c-12.571429 0-22.857143-10.285714-22.857143-22.857143s10.285714-22.857143 22.857143-22.857142h392c12.571429 0 22.857143 10.285714 22.857143 22.857142s-10.171429 22.857143-22.857143 22.857143z" p-id="20727"></path><path d="M653.257143 0.228571H85.485714C72 0.228571 61.142857 11.2 61.142857 24.571429v973.828571c0 13.485714 10.971429 24.342857 24.342857 24.342857h524.114286c12.571429 0 22.857143-10.285714 22.857143-22.857143s-10.285714-22.857143-22.857143-22.857143H106.857143V45.942857h499.314286v175.314286c0 13.142857 10.742857 23.885714 23.885714 23.885714h167.885714V572.571429c0 12.571429 10.285714 22.857143 22.857143 22.857142s22.857143-10.285714 22.857143-22.857142V190.628571C843.657143 85.6 758.285714 0.228571 653.257143 0.228571z m-1.371429 199.2V45.942857h1.371429c79.771429 0 144.685714 64.914286 144.685714 144.685714v8.8H651.885714z" p-id="20728"></path><path d="M451.885714 632h-196.571428c-12.571429 0-22.857143-10.285714-22.857143-22.857143s10.285714-22.857143 22.857143-22.857143h196.571428c12.571429 0 22.857143 10.285714 22.857143 22.857143s-10.171429 22.857143-22.857143 22.857143zM732.114286 929.142857c-61.371429 0-111.428571-49.942857-111.428572-111.428571s49.942857-111.428571 111.428572-111.428572c2.971429 0 5.942857-0.571429 8.571428-1.714285 5.257143-1.257143 10.057143-4.342857 13.485715-9.142858 7.2-10.285714 4.685714-24.571429-5.6-31.885714L680.228571 616c-10.285714-7.2-24.571429-4.685714-31.885714 5.6-7.2 10.285714-4.685714 24.571429 5.6 31.885714l24 16.8c-60.114286 22.057143-102.971429 79.885714-102.971428 147.542857 0 86.628571 70.514286 157.142857 157.142857 157.142858 12.571429 0 22.857143-10.285714 22.857143-22.857143s-10.285714-22.971429-22.857143-22.971429zM962.285714 817.714286c0-42.057143-16.457143-81.485714-46.514285-111.314286-4.8-4.685714-9.828571-9.142857-15.2-13.257143-10.057143-7.657143-24.342857-5.828571-32 4.228572-7.657143 10.057143-5.828571 24.342857 4.228571 32 3.771429 2.857143 7.428571 6.057143 10.857143 9.485714 21.257143 21.142857 33.028571 49.142857 33.028571 78.857143 0 61.371429-49.942857 111.428571-111.428571 111.428571-3.314286 0-6.514286 0.8-9.371429 2.057143-4.685714 1.485714-8.8 4.342857-11.885714 8.685714-7.2 10.285714-4.685714 24.571429 5.6 31.885715l68.228571 47.771428c4 2.742857 8.571429 4.114286 13.142858 4.114286 7.2 0 14.285714-3.428571 18.742857-9.714286 7.2-10.285714 4.685714-24.571429-5.6-31.885714l-24.228572-16.914286c59.657143-22.285714 102.4-80 102.4-147.428571zM825.828571 712h-18.285714c-12.571429 0-22.857143-10.285714-22.857143-22.857143s10.285714-22.857143 22.857143-22.857143h18.285714c12.571429 0 22.857143 10.285714 22.857143 22.857143s-10.285714 22.857143-22.857143 22.857143z" p-id="20729"></path></svg>