<?xml version="1.0" standalone="no"?><!DOCTYPE svg PUBLIC "-//W3C//DTD SVG 1.1//EN" "http://www.w3.org/Graphics/SVG/1.1/DTD/svg11.dtd"><svg t="1596093817425" class="icon" viewBox="0 0 1024 1024" version="1.1" xmlns="http://www.w3.org/2000/svg" p-id="32924" xmlns:xlink="http://www.w3.org/1999/xlink" width="24" height="24"><defs><style type="text/css"></style></defs><path d="M932.8 581.6c-1.7 10.6-8.9 19.5-18.8 23.3-9.9 3.8-21 1.8-29.2-5-8.1-6.9-11.9-17.6-10-28.1 0.1-0.6 0.2-1.1 0.3-1.7 3.4-20.6 5-41.5 5-62.4 0-211.6-169.6-383.2-378.8-383.2-209.2 0-378.8 171.6-378.8 383.2s169.6 383.2 378.8 383.2c16.2 0 29.4 13.3 29.4 29.7s-13.1 29.7-29.4 29.7h-0.8c-241.2-0.6-436.7-198.6-436.7-442.8C63.8 263 259.7 64.9 501.4 64.9 743 64.9 938.9 263 938.9 507.5c0 24.8-2 49.6-6.1 74.1zM686.2 799.5c16.2 0 29.4 13.3 29.4 29.7v90.9c0 16.4-13.1 29.7-29.4 29.7s-29.4-13.3-29.4-29.7v-90.9c0-16.4 13.2-29.7 29.4-29.7z m111.6-128.7c16.2 0 29.4 13.3 29.4 29.7v219.6c0 16.4-13.1 29.7-29.4 29.7-16.2 0-29.4-13.3-29.4-29.7V700.5c0-16.4 13.2-29.7 29.4-29.7z m111.6 47.5c16.2 0 29.4 13.3 29.4 29.7v172.1c0 16.4-13.1 29.7-29.4 29.7-16.2 0-29.4-13.3-29.4-29.7V748c0-16.4 13.1-29.7 29.4-29.7z m0 0" p-id="32925"></path><path d="M512.2 655.4h-0.4c-7.6 0-14.7-3-19.9-8.7-4.1-4.3-41.1-43.5-78.2-92.9-49.8-66.9-75.1-120.4-75.1-158.5 0-95.5 77.7-173 173.2-173 95.5 0 173.2 77.5 173.2 173 0 23.2-8.9 51.5-26.6 84.4-16.9 31.6-42.4 68.4-76 109.1l-0.2 0.2-49.8 56.7c-5 6.2-12.4 9.7-20.2 9.7z m-0.4-179.2c44.8 0 81-36.4 81-81s-36.2-80.8-81-80.8-81.2 36.2-81.2 81 36.4 80.8 81.2 80.8z m0 0" p-id="32926"></path><path d="M383.2 595.3c-21.9 10.6-35 23.9-35 38.3 0 34.4 73.3 62.2 163.9 62.2S676 667.9 676 633.6c0-14.5-13.1-27.8-35-38.3 7.3-10.8 11.8-23.2 13.3-36.2 38.5 18.9 62.7 45.3 62.7 74.6 0 57.3-91.8 103.7-204.8 103.7s-204.8-46.5-204.8-103.7c0-29.3 24.2-55.7 62.7-74.6 1.2 12.9 5.8 25.3 13.1 36.2z" p-id="32927"></path></svg>