<?xml version="1.0" standalone="no"?><!DOCTYPE svg PUBLIC "-//W3C//DTD SVG 1.1//EN" "http://www.w3.org/Graphics/SVG/1.1/DTD/svg11.dtd"><svg t="1596094001021" class="icon" viewBox="0 0 1024 1024" version="1.1" xmlns="http://www.w3.org/2000/svg" p-id="38338" xmlns:xlink="http://www.w3.org/1999/xlink" width="24" height="24"><defs><style type="text/css"></style></defs><path d="M775.7696 682.794667a88.192 88.192 0 0 0-80.469333 43.264 90.24 90.24 0 0 0 0.085333 92.16 88.192 88.192 0 0 0 80.554667 43.093333 88.832 88.832 0 0 0 85.546666-89.344 88.832 88.832 0 0 0-85.76-89.130667v-0.042666z m-3.669333 129.92a40.106667 40.106667 0 0 1-28.757334-12.330667 42.581333 42.581333 0 0 1-11.904-29.653333 41.258667 41.258667 0 0 1 40.618667-39.296c21.504 0 39.296 17.194667 40.661333 39.253333 0 23.210667-18.176 41.984-40.661333 41.984h0.042667z m246.570666-92.586667c-3.669333-19.669333-15.914667-32.426667-31.701333-32.426667h-2.218667c-30.208 0-54.613333-25.088-54.784-56.021333 0.426667-7.253333 2.048-14.421333 4.693334-21.333333a41.514667 41.514667 0 0 0-14.848-50.176l-64-36.181334a42.624 42.624 0 0 0-46.848 9.514667c-7.850667 8.533333-28.970667 25.898667-43.648 25.898667-14.72 0-36.053333-17.749333-44.032-26.282667a42.624 42.624 0 0 0-46.592-9.898667l-1.28 0.469334-65.152 36.693333-1.493334 0.810667a41.258667 41.258667 0 0 0-13.610666 49.194666c2.901333 6.698667 4.48 13.994667 4.906666 21.333334-0.170667 30.976-24.576 55.978667-54.826666 55.978666h-2.56c-15.445333 0-27.776 12.928-31.402667 32.426667a345.386667 345.386667 0 0 0-5.376 52.053333c0 21.845333 4.821333 49.066667 5.376 52.053334 3.754667 19.626667 15.957333 32.298667 31.744 32.298666h2.218667c30.037333 0 54.741333 25.173333 54.741333 56.149334 0 8.021333-3.413333 18.090667-4.736 21.248a41.386667 41.386667 0 0 0 14.805333 50.133333l62.848 35.754667a42.282667 42.282667 0 0 0 47.061334-10.069334c7.765333-8.533333 29.738667-27.349333 44.629333-27.349333 15.36 0 36.949333 18.773333 45.141333 27.946667 7.936 8.661333 19.285333 13.653333 31.274667 13.653333a39.552 39.552 0 0 0 17.365333-4.096l63.530667-35.882667 1.450667-1.066666a40.917333 40.917333 0 0 0 13.568-48.938667 66.346667 66.346667 0 0 1-4.864-21.333333c0-31.018667 24.576-56.064 54.741333-56.192h2.602667c15.445333 0 27.776-12.714667 31.274666-32.213334 0-0.298667 5.333333-29.141333 5.333334-52.096 0-21.973333-4.821333-49.194667-5.333334-52.053333z m-46.464 87.296c-50.346667 7.082667-87.893333 53.461333-87.893333 108.373333 0 12.629333 2.773333 24.746667 5.333333 32.981334l-44.245333 26.453333a183.936 183.936 0 0 0-18.218667-16.853333c-19.626667-15.658667-38.613333-23.765333-56.448-23.765334-17.706667 0-36.437333 7.936-56.021333 23.210667-6.357333 5.12-12.330667 10.666667-17.92 16.597333l-42.453333-25.6c2.517333-8.277333 5.546667-20.48 5.546666-33.066666 0-54.869333-37.632-101.333333-88.064-108.373334a276.736 276.736 0 0 1-2.944-34.944c0-11.648 1.749333-26.026667 2.986667-34.986666 50.346667-7.168 87.936-53.461333 88.021333-108.373334 0-12.757333-2.901333-24.789333-5.504-33.024l45.824-27.178666c3.882667 4.138667 10.197333 10.24 18.048 16.128 19.285333 14.933333 37.674667 22.357333 55.04 22.357333 17.237333 0 35.498667-7.338667 54.613334-21.888 7.765333-5.888 14.037333-11.776 17.962666-15.786667l43.861334 26.325334c-3.413333 10.666667-5.248 21.76-5.376 33.024 0 55.253333 37.973333 101.205333 87.893333 108.373333 1.194667 9.045333 2.986667 23.552 2.986667 34.986667 0 11.349333-1.792 25.941333-2.986667 34.986666v0.042667zM439.7696 0a259.84 259.84 0 0 0-244.906667 176.213333 262.357333 262.357333 0 0 0 85.162667 290.645334l16.213333 12.928-19.072 7.552A441.813333 441.813333 0 0 0 0.004267 899.285333v91.136c0 18.56 15.018667 33.578667 33.408 33.578667H521.390933a344.490667 344.490667 0 0 1-40.405333-67.2H66.734933v-57.429333c-0.128-193.536 145.792-355.626667 337.408-374.698667v-0.085333h0.554667c11.477333-1.152 23.210667-1.664 35.072-1.664h5.376c41.813333-3.242667 104.917333-13.226667 138.154667-43.136l16.213333-12.928a262.144 262.144 0 0 0 85.248-290.56A260.096 260.096 0 0 0 439.726933 0h0.042667z m-3.2 455.082667c-107.264-2.645333-192.853333-89.173333-192.768-194.986667-0.085333-105.898667 85.504-192.426667 192.853333-195.072 109.056 0.170667 197.376 87.466667 197.248 195.029333 0.128 107.562667-88.192 194.858667-197.290666 195.072v-0.042666z" p-id="38339"></path></svg>