<svg t="1596081393682" class="icon" viewBox="0 0 1024 1024" version="1.1" xmlns="http://www.w3.org/2000/svg" p-id="39484"><path d="M855.893333 507.733333c-5.973333 0-10.24-4.266667-10.24-10.24s4.266667-10.24 10.24-10.24h42.666667c5.973333 0 10.24 4.266667 10.24 10.24s-4.266667 10.24-10.24 10.24h-42.666667zM855.893333 623.786667c-5.973333 0-10.24-4.266667-10.24-10.24s4.266667-10.24 10.24-10.24h42.666667c5.973333 0 10.24 4.266667 10.24 10.24s-4.266667 10.24-10.24 10.24h-42.666667zM855.893333 740.693333c-5.973333 0-10.24-4.266667-10.24-10.24s4.266667-10.24 10.24-10.24h42.666667c5.973333 0 10.24 4.266667 10.24 10.24s-4.266667 10.24-10.24 10.24h-42.666667zM146.773333 877.226667c-1.706667 0-3.413333 0-4.266666-0.853334-3.413333-1.706667-5.973333-5.12-5.973334-9.386666V752.64h-49.493333C52.906667 752.64 25.6 725.333333 25.6 691.2V220.16c0-16.213333 6.826667-31.573333 17.92-43.52 11.946667-11.946667 27.306667-17.92 43.52-17.92h634.026667c34.133333 0 61.44 27.306667 61.44 61.44V691.2c0 16.213333-6.826667 31.573333-17.92 43.52-11.946667 11.946667-27.306667 17.92-43.52 17.92H321.706667l-168.96 122.88c-1.706667 0.853333-4.266667 1.706667-5.973334 1.706667z m-59.733333-698.026667c-11.093333 0-21.333333 4.266667-29.013333 11.946667-7.68 7.68-11.946667 17.92-11.946667 29.013333V691.2c0 22.186667 18.773333 40.96 40.96 40.96h59.733333c5.973333 0 10.24 4.266667 10.24 10.24v104.96l155.306667-112.64c1.706667-0.853333 3.413333-1.706667 5.973333-1.706667h402.773334c11.093333 0 21.333333-4.266667 29.013333-11.946666 7.68-7.68 11.946667-17.92 11.946667-29.013334V221.013333c0-22.186667-18.773333-40.96-40.96-40.96L87.04 179.2v-1.706667 1.706667z" p-id="39485"></path><path d="M529.92 340.48c-5.973333 0-10.24-4.266667-10.24-10.24v-66.56c0-5.973333 4.266667-10.24 10.24-10.24s10.24 4.266667 10.24 10.24v56.32h56.32c5.973333 0 10.24 4.266667 10.24 10.24s-4.266667 10.24-10.24 10.24h-66.56zM403.626667 661.333333c-113.493333 0-205.653333-92.16-205.653334-205.653333S290.133333 250.026667 403.626667 250.026667c5.973333 0 10.24 4.266667 10.24 10.24s-4.266667 10.24-10.24 10.24c-102.4 0-185.173333 82.773333-185.173334 185.173333s82.773333 185.173333 185.173334 185.173333S588.8 558.08 588.8 455.68c0-5.973333 4.266667-10.24 10.24-10.24s10.24 4.266667 10.24 10.24c0 113.493333-92.16 205.653333-205.653333 205.653333z" p-id="39486"></path><path d="M403.626667 577.706667c-67.413333 0-122.026667-54.613333-122.026667-122.026667s54.613333-122.026667 122.026667-122.026667c5.973333 0 10.24 4.266667 10.24 10.24s-4.266667 10.24-10.24 10.24c-55.466667 0-101.546667 45.226667-101.546667 101.546667s45.226667 101.546667 101.546667 101.546667S505.173333 512 505.173333 455.68c0-5.973333 4.266667-10.24 10.24-10.24s10.24 4.266667 10.24 10.24c0 67.413333-54.613333 122.026667-122.026666 122.026667z" p-id="39487"></path><path d="M403.626667 504.32c-26.453333 0-48.64-22.186667-48.64-48.64s22.186667-48.64 48.64-48.64c9.386667 0 18.773333 2.56 26.453333 7.68l29.013333-29.013333v-64c0-5.973333 4.266667-10.24 10.24-10.24s10.24 4.266667 10.24 10.24v58.026666H537.6c5.973333 0 10.24 4.266667 10.24 10.24s-4.266667 10.24-10.24 10.24h-64l-29.013333 29.013334c5.12 7.68 7.68 17.066667 7.68 26.453333 0 27.306667-21.333333 48.64-48.64 48.64z m0-76.8c-15.36 0-28.16 12.8-28.16 28.16s12.8 28.16 28.16 28.16 28.16-12.8 28.16-28.16c0-4.266667-0.853333-9.386667-3.413334-13.653333-2.56-5.12-6.826667-8.533333-11.093333-11.093334-4.266667-1.706667-8.533333-3.413333-13.653333-3.413333zM898.56 965.973333c-2.56 0-4.266667-0.853333-5.973333-1.706666L750.933333 859.306667H430.08c-34.133333 0-61.44-27.306667-61.44-61.44v-48.64h20.48v48.64c0 22.186667 18.773333 40.96 40.96 40.96h324.266667c2.56 0 4.266667 0.853333 5.973333 1.706666l128 94.72V849.066667c0-5.973333 4.266667-10.24 10.24-10.24h41.813333c11.093333 0 21.333333-4.266667 29.013334-11.946667 7.68-7.68 11.946667-17.92 11.946666-29.013333V423.253333c0-22.186667-18.773333-40.96-40.96-40.96H779.093333v-20.48h161.28c34.133333 0 61.44 27.306667 61.44 61.44v374.613334c0 16.213333-6.826667 31.573333-17.92 43.52-11.946667 11.093333-27.306667 17.92-43.52 17.92h-31.573333V955.733333c0 4.266667-2.56 7.68-5.973333 9.386667-0.853333 0-2.56 0.853333-4.266667 0.853333z" p-id="39488"></path></svg>